<svg xmlns="http://www.w3.org/2000/svg" width="24" height="24" viewBox="0 0 24 24" fill="none" stroke="currentColor" stroke-width="2" stroke-linecap="round" stroke-linejoin="round"><path d="M12 21c-4.418 0-8-4-8-9 0-2.5 2-5 5-5h6c3 0 5 2.5 5 5 0 5-3.582 9-8 9z"/><path d="M8 7c-1-1.5-.5-3.5 1-4.5"/><path d="M12 7c0-2 .5-4 2-5"/><path d="M16 7c1-1.5.5-3.5-1-4.5"/><circle cx="10" cy="13" r=".5" fill="currentColor"/><circle cx="14" cy="11" r=".5" fill="currentColor"/><circle cx="12" cy="16" r=".5" fill="currentColor"/></svg>
